<?xml version="1.0" encoding="utf-8"?>
<!-- Generator: Adobe Illustrator 19.2.1, SVG Export Plug-In . SVG Version: 6.00 Build 0)  -->
<svg version="1.1" id="layer" xmlns="http://www.w3.org/2000/svg" xmlns:xlink="http://www.w3.org/1999/xlink" x="0px" y="0px"
	 viewBox="0 0 652 652" style="enable-background:new 0 0 652 652;" xml:space="preserve">
<style type="text/css">
	.st0{fill:#A00000;}
</style>
<g>
	<path d="M68.3,334.1c0,11.3-9.2,18.7-20.6,18.7H21.4c-0.2,0-0.5-0.2-0.5-0.5v-62.7c0-0.2,0.2-0.5,0.5-0.5h24.4
		c11.1,0,20.1,7.2,20.1,18.2c0,5.3-2.1,9.5-5.5,12.5C65.2,322.7,68.3,327.6,68.3,334.1 M35.5,302.7V314h10.4c3.3,0,5.5-2.3,5.5-5.6
		c0-3.3-2.2-5.6-5.5-5.6H35.5z M53.7,333c0-3.5-2.3-6.1-6-6.1H35.5v12.2h12.2C51.4,339.1,53.7,336.6,53.7,333 M103.8,289.6v62.7
		c0,0.2-0.2,0.5-0.5,0.5H89.7c-0.2,0-0.5-0.2-0.5-0.5v-62.7c0-0.2,0.2-0.5,0.5-0.5h13.6C103.5,289.1,103.8,289.3,103.8,289.6
		 M310.5,331.8h-6.9v20.5c0,0.2-0.2,0.5-0.5,0.5h-13.6c-0.2,0-0.5-0.2-0.5-0.5v-62.7c0-0.2,0.2-0.5,0.5-0.5h25
		c12.1,0,21.8,9.7,21.8,21.8c0,7.8-4.7,14.9-11.8,18.5l13.1,22.7c0.2,0.3-0.1,0.7-0.4,0.7h-14.5c-0.2,0-0.4-0.1-0.4-0.2L310.5,331.8
		z M303.6,319.1h10.9c4,0,7.3-3.5,7.3-8.2c0-4.6-3.3-8.2-7.3-8.2h-10.9V319.1z M395.9,342.7h-23.6l-3.1,9.7
		c-0.1,0.2-0.2,0.4-0.5,0.4h-14.9c-0.3,0-0.5-0.3-0.5-0.7l21.2-62.2c0.2-0.5,0.7-0.8,1.2-0.8h16.7c0.5,0,1,0.4,1.2,0.8l21.1,62.2
		c0.1,0.3-0.1,0.7-0.5,0.7h-14.9c-0.2,0-0.4-0.1-0.5-0.4L395.9,342.7z M391.6,329.1l-7.4-23.4l-7.4,23.4H391.6z M478.8,310.9
		c0,12.1-9.7,21.8-22.3,21.8H447v19.5c0,0.2-0.2,0.5-0.5,0.5h-13.6c-0.2,0-0.5-0.2-0.5-0.5v-62.6c0-0.2,0.2-0.5,0.5-0.5h23.6
		C469.1,289.1,478.8,298.8,478.8,310.9 M464.3,310.9c0-4.6-3.3-8.2-7.7-8.2H447v16.4h9.5C461,319.1,464.3,315.6,464.3,310.9
		 M546.7,289.6v62.7c0,0.2-0.2,0.5-0.5,0.5h-13.6c-0.2,0-0.5-0.2-0.5-0.5v-24.8h-20v24.8c0,0.2-0.2,0.5-0.5,0.5h-13.6
		c-0.2,0-0.5-0.2-0.5-0.5v-62.6c0-0.2,0.2-0.5,0.5-0.5h13.6c0.2,0,0.5,0.2,0.5,0.5v23.9h20v-23.9c0-0.2,0.2-0.5,0.5-0.5h13.6
		C546.5,289.1,546.7,289.3,546.7,289.6 M600,328.3v24c0,0.2-0.2,0.5-0.5,0.5h-13.6c-0.2,0-0.5-0.2-0.5-0.5v-24l-21-38.5
		c-0.2-0.3,0.1-0.7,0.4-0.7h15.4c0.2,0,0.4,0.1,0.4,0.2l11.9,24.3l11.9-24.3c0.1-0.2,0.2-0.2,0.4-0.2h15.4c0.4,0,0.6,0.4,0.4,0.7
		L600,328.3z M238.2,317.7v11.8c0,0.2,0.2,0.5,0.5,0.5h16.5c-2.3,6.1-7.8,9.8-16.3,9.8c-12.4,0-20-7.9-20-18.7
		c0-11.2,8-19.1,18.7-19.1c5.6,0,10.2,2,13.3,4.8c0.2,0.2,0.5,0.2,0.7,0l9.4-9.4c0.2-0.2,0.2-0.5,0-0.7c-5.8-5.5-13.9-8.9-23.2-8.9
		c-18.7,0-33.4,14.8-33.4,33.2c0,18.3,14.4,33,34.4,33c17.8,0,31.4-11.8,31.4-31.3v-5c0-0.2-0.2-0.5-0.5-0.5h-31
		C238.4,317.2,238.2,317.5,238.2,317.7 M122.5,320.9c0-18.7,14.8-33.1,33.1-33.1s33.1,14.4,33.1,33.1c0,18.7-14.8,33.1-33.1,33.1
		S122.5,339.6,122.5,320.9 M174.2,320.9c0-11.3-8.2-18.9-18.5-18.9c-10.4,0-18.5,7.6-18.5,18.9c0,11.4,8.2,18.9,18.5,18.9
		C166,339.8,174.2,332.3,174.2,320.9"/>
	<path class="st0" d="M163.3,320.9c0-4.3-3.4-7.7-7.7-7.7c-4.3,0-7.7,3.4-7.7,7.7c0,4.3,3.4,7.7,7.7,7.7
		C159.9,328.6,163.3,325.2,163.3,320.9"/>
</g>
<g>
	<path d="M613,349.6v-0.7h3.2v0.7H615v3.2h-0.8v-3.2H613z M617.9,348.9l1,2.8l1-2.8h1.1v3.8h-0.7v-3.1l-1.1,3.1h-0.6l-1.1-3.1v3.1
		h-0.7v-3.8H617.9z"/>
</g>
</svg>
